<?xml version="1.0" standalone="no"?>
<!DOCTYPE svg PUBLIC "-//W3C//DTD SVG 20010904//EN"
 "http://www.w3.org/TR/2001/REC-SVG-20010904/DTD/svg10.dtd">
<svg version="1.0" xmlns="http://www.w3.org/2000/svg"
 width="1920.000000pt" height="1920.000000pt" viewBox="0 0 1920.000000 1920.000000"
 preserveAspectRatio="xMidYMid meet">

<g transform="translate(0.000000,1920.000000) scale(0.100000,-0.100000)"
fill="#000000" stroke="none">
<path d="M7460 18230 c-585 -61 -1109 -313 -1511 -726 -122 -125 -152 -159
-227 -262 -622 -842 -649 -1993 -68 -2865 143 -214 360 -446 558 -595 547
-411 1233 -579 1894 -463 958 168 1731 893 1964 1843 54 220 65 319 65 598 0
271 -9 357 -60 575 -104 444 -321 838 -644 1168 -374 383 -859 631 -1391 712
-124 19 -460 27 -580 15z m442 -1842 c195 -73 340 -221 410 -418 20 -56 23
-84 23 -210 0 -126 -3 -154 -23 -210 -135 -382 -556 -557 -916 -380 -131 65
-238 176 -301 314 -45 99 -60 166 -59 276 0 120 15 182 71 298 78 164 221 284
403 339 65 20 92 23 200 20 104 -3 137 -8 192 -29z"/>
<path d="M11953 17865 c-834 -127 -1467 -762 -1605 -1610 -21 -132 -16 -476
10 -615 55 -302 173 -576 352 -820 84 -114 304 -330 417 -410 241 -169 490
-275 768 -326 120 -22 417 -30 542 -14 566 69 1052 375 1373 865 270 413 365
961 254 1464 -102 458 -373 863 -765 1143 -114 82 -336 195 -478 243 -194 66
-318 86 -561 90 -151 3 -242 0 -307 -10z m408 -1401 c236 -69 395 -313 361
-556 -40 -281 -295 -479 -567 -440 -257 38 -436 245 -437 507 0 112 24 192 88
287 65 96 142 155 254 195 80 28 218 31 301 7z"/>
<path d="M9360 13684 c-152 -130 -404 -288 -600 -374 -797 -352 -1693 -294
-2444 158 -66 40 -123 72 -127 72 -13 0 -114 -131 -147 -190 -17 -30 -43 -91
-59 -135 l-28 -80 -3 -1052 -3 -1051 103 -6 c57 -4 436 -20 843 -36 1792 -73
2228 -91 2355 -99 80 -5 -783 -9 -2102 -10 l-2238 -1 0 -295 0 -295 2242 0
c1233 0 2239 -2 2237 -4 -2 -2 -777 -37 -1721 -77 l-1718 -74 0 -270 c0 -235
3 -281 20 -353 63 -262 251 -466 515 -559 l80 -28 3110 0 3110 0 80 28 c254
90 433 278 507 534 l23 78 0 1770 0 1770 -23 79 c-79 273 -288 478 -556 546
-78 20 -111 20 -1730 19 l-1651 -1 -75 -64z m902 -669 c21 -14 47 -43 58 -65
20 -39 20 -53 18 -608 l-3 -569 -29 -37 c-32 -42 -95 -76 -141 -75 -75 1 -153
58 -173 127 -16 52 -17 1070 -1 1125 32 117 170 168 271 102z m659 24 c47 -16
104 -73 118 -118 8 -27 11 -203 11 -577 0 -527 0 -539 -21 -582 -64 -132 -252
-133 -319 -1 -19 37 -20 61 -20 590 0 540 0 554 21 596 39 81 127 119 210 92z
m701 1 c48 -14 97 -55 114 -97 11 -26 14 -143 14 -596 l0 -564 -23 -34 c-64
-95 -182 -114 -267 -43 -68 58 -65 29 -65 649 0 502 2 563 17 590 23 43 60 75
105 90 47 17 58 18 105 5z m759 -24 c21 -14 46 -44 58 -68 21 -44 21 -54 21
-594 0 -518 -2 -551 -19 -591 -60 -131 -256 -132 -320 -1 -21 43 -21 54 -21
584 0 330 4 553 10 575 12 43 66 98 112 116 45 17 115 8 159 -21z"/>
<path d="M16236 13396 c-53 -20 -106 -65 -130 -112 -17 -32 -22 -64 -26 -168
l-5 -130 -610 -198 c-335 -109 -701 -227 -812 -264 -111 -36 -217 -75 -235
-88 -41 -27 -83 -90 -111 -164 -22 -57 -22 -64 -25 -902 -2 -606 0 -862 8
-905 16 -80 54 -159 101 -206 35 -35 60 -45 366 -144 180 -58 551 -179 823
-268 l495 -163 5 -130 c5 -124 7 -133 35 -180 19 -30 49 -60 79 -79 43 -26 59
-30 121 -30 62 0 78 4 120 30 59 37 100 93 114 158 8 33 11 640 11 1891 0
2001 3 1896 -54 1971 -59 77 -182 114 -270 81z"/>
<path d="M13600 11340 l0 -750 240 0 240 0 -2 748 -3 747 -237 3 -238 2 0
-750z"/>
<path d="M3075 11089 c-189 -32 -344 -166 -406 -349 -28 -82 -30 -209 -5 -295
51 -173 194 -314 367 -360 44 -12 183 -15 780 -15 l725 0 51 25 c54 27 97 78
113 136 14 46 13 663 -1 712 -13 47 -60 102 -113 130 l-41 22 -710 1 c-390 1
-732 -2 -760 -7z"/>
<path d="M7770 8710 c0 -36 151 -299 241 -421 l60 -80 -66 -337 c-36 -185 -81
-416 -100 -512 -38 -195 -885 -4528 -1025 -5240 -186 -949 -220 -1126 -220
-1143 0 -15 17 -17 193 -17 l193 0 82 338 c45 185 171 708 281 1162 721 2976
932 3847 1088 4495 97 402 178 732 179 734 2 2 57 -21 121 -51 65 -31 156 -68
203 -83 47 -15 88 -30 91 -34 7 -6 10 -85 94 -2701 30 -932 57 -1776 60 -1875
3 -99 17 -520 30 -935 13 -415 27 -821 31 -902 l7 -148 188 0 c145 0 189 3
189 13 0 6 9 269 20 582 11 314 26 793 35 1065 19 613 52 1610 110 3375 25
748 45 1381 45 1407 0 47 0 47 38 53 115 19 249 49 318 70 44 14 84 25 91 25
6 0 29 -71 53 -172 77 -320 392 -1619 995 -4108 184 -762 386 -1593 447 -1848
l112 -462 193 0 c182 0 193 1 193 19 0 10 -27 155 -60 322 -54 280 -514 2631
-1021 5229 -115 591 -223 1143 -240 1226 l-30 152 129 128 c129 129 233 259
312 389 57 93 149 278 143 287 -7 12 -3803 10 -3803 -2z"/>
</g>
</svg>
